<?xml version="1.0" encoding="UTF-8"?>
<svg version="1.1" xmlns="http://www.w3.org/2000/svg" width="512" height="512">
<path d="M0 0 C1.00740234 0.51199951 2.01480469 1.02399902 3.05273438 1.55151367 C3.97892578 2.03724854 4.90511719 2.5229834 5.859375 3.0234375 C6.68405273 3.45317871 7.50873047 3.88291992 8.35839844 4.32568359 C10.25 5.625 10.25 5.625 11.25 8.625 C9.92651367 11.45654297 9.92651367 11.45654297 7.91796875 14.8671875 C7.56616043 15.47257355 7.21435211 16.07795959 6.85188293 16.70169067 C5.72327121 18.6402113 4.58113515 20.57031093 3.4375 22.5 C2.30695761 24.42382518 1.17937382 26.3493021 0.05525208 28.27688599 C-0.97025484 30.03281379 -2.00408694 31.78387157 -3.03833008 33.53466797 C-6.46884044 39.72827803 -7.59901401 44.5857066 -6.75 51.625 C-4.92163426 57.83268486 -1.11426668 62.12561131 4.25 65.625 C8.47370902 67.79393166 12.64779618 68.70952349 17.3125 69.4375 C22.57389658 70.41033142 25.78646772 72.5858953 29.25 76.625 C31.87990829 80.85572202 31.92286908 85.77689204 31.25 90.625 C27.60317215 98.07060687 20.48793524 103.6959129 14.125 108.8125 C9.57810059 112.48817532 5.15221155 116.26883907 0.8125 120.1875 C0.22130371 120.70530029 -0.36989258 121.22310059 -0.97900391 121.7565918 C-6.63518911 126.93238201 -10.50282961 133.35180415 -10.953125 141.13671875 C-11.55456311 151.91890261 -11.55456311 151.91890261 -7.75 161.625 C-5.30220801 164.01097906 -2.79348613 166.21518521 -0.125 168.3515625 C4.70598273 172.97595715 5.70004456 178.16533054 6.625 184.5625 C7.68258549 190.7989251 8.64708476 195.12437176 13.25 199.625 C20.50087167 204.36096863 27.12787029 204.22841334 35.625 204.125 C36.88828125 204.14046875 38.1515625 204.1559375 39.453125 204.171875 C50.62163578 204.12543629 60.08707448 201.57635942 68.25 193.625 C70.49750218 190.76116152 72.3948304 187.75394701 74.25 184.625 C80.19368231 174.64377256 80.19368231 174.64377256 86.25 172.625 C87.72965926 172.47926942 89.21403843 172.37836732 90.69921875 172.30859375 C91.54677734 172.26669922 92.39433594 172.22480469 93.26757812 172.18164062 C94.14865234 172.14232422 95.02972656 172.10300781 95.9375 172.0625 C97.27651367 171.99772461 97.27651367 171.99772461 98.64257812 171.93164062 C100.84490108 171.82564647 103.04733473 171.72357949 105.25 171.625 C106.5180824 230.78917256 88.28699573 285.58652917 46.953125 328.83203125 C45.61507812 330.21455078 45.61507812 330.21455078 44.25 331.625 C43.54359375 332.37136719 42.8371875 333.11773437 42.109375 333.88671875 C9.32976832 367.79895412 -41.76257188 391.60579118 -89.11035156 392.78613281 C-90.62038183 392.80562116 -92.13049412 392.81941179 -93.640625 392.828125 C-94.45921997 392.83513931 -95.27781494 392.84215363 -96.12121582 392.84938049 C-98.74753387 392.86678167 -101.37362642 392.87323247 -104 392.875 C-104.89738892 392.87567474 -105.79477783 392.87634949 -106.71936035 392.87704468 C-119.94793487 392.86122668 -132.78311331 392.47654663 -145.75 389.625 C-146.56162598 389.45339355 -147.37325195 389.28178711 -148.20947266 389.10498047 C-187.87341903 380.53499476 -222.52539014 361.59920367 -251.75 333.625 C-252.24741699 333.15481445 -252.74483398 332.68462891 -253.25732422 332.20019531 C-288.23846002 299.00576063 -313.45296001 248.03089623 -314.92700195 199.44165039 C-314.95310564 197.95207435 -314.97327667 196.46238544 -314.98828125 194.97265625 C-314.99825638 194.16285812 -315.00823151 193.35306 -315.01850891 192.51872253 C-315.30424576 163.2573466 -315.30424576 163.2573466 -313.375 148.875 C-313.26841064 147.87218994 -313.16182129 146.86937988 -313.05200195 145.83618164 C-312.59986914 143.06775649 -312.1609571 141.05065038 -310.75 138.625 C-307.59998502 136.54387924 -304.3760118 135.58867295 -300.75 134.625 C-299.06777344 133.99851563 -299.06777344 133.99851563 -297.3515625 133.359375 C-288.54753012 130.44780524 -279.94565557 128.73851497 -271 132.0625 C-263.32950944 135.99466484 -258.58127338 143.8273451 -253.4609375 150.5 C-248.5865118 156.55408124 -242.66726697 161.6215106 -236.75 166.625 C-236.09644531 167.21410156 -235.44289063 167.80320312 -234.76953125 168.41015625 C-229.08631321 173.26168385 -223.26782289 175.62497494 -216.30078125 178.0703125 C-209.82179262 180.9070974 -206.97559967 183.53233282 -204.15234375 189.9296875 C-201.04292266 198.04024933 -198.92338793 206.45375445 -196.77319336 214.85791016 C-193.49485827 227.58347454 -188.3354992 236.9987677 -180.125 247.25 C-178.89611862 248.80909493 -177.66827518 250.36900846 -176.44140625 251.9296875 C-175.52125732 253.09709473 -175.52125732 253.09709473 -174.58251953 254.28808594 C-171.70601843 257.95633381 -168.87462658 261.65725852 -166.0625 265.375 C-165.56991699 266.01775879 -165.07733398 266.66051758 -164.56982422 267.32275391 C-164.10979004 267.93296387 -163.64975586 268.54317383 -163.17578125 269.171875 C-162.77786377 269.69620117 -162.37994629 270.22052734 -161.9699707 270.76074219 C-158.06303793 276.73099207 -156.89686882 282.27128701 -155.84765625 289.2109375 C-155.51119896 291.29689617 -155.17460622 293.382833 -154.83789062 295.46875 C-154.32281705 298.73538144 -153.81209054 302.00263833 -153.30493164 305.27050781 C-152.80942541 308.4400267 -152.29795935 311.60667816 -151.78515625 314.7734375 C-151.64022232 315.74139252 -151.49528839 316.70934753 -151.34596252 317.70663452 C-150.30513754 324.08963988 -148.94563651 330.8312889 -143.85546875 335.28125 C-138.66337591 337.56534787 -134.3312107 338.84617913 -128.7109375 336.9296875 C-123.29569711 334.51615339 -119.32773706 331.30142504 -116.921875 325.6953125 C-115.76582747 322.33785532 -114.83222547 318.94983132 -113.9609375 315.5078125 C-112.08534471 308.57627394 -109.86360427 303.68939732 -105.04296875 298.33203125 C-97.56818388 289.50745558 -93.80602719 280.96637734 -90.625 270 C-84.48310894 249.09101618 -84.48310894 249.09101618 -75.4375 241.875 C-74.93404053 241.46652832 -74.43058105 241.05805664 -73.91186523 240.63720703 C-70.86972222 238.19781749 -67.74728783 235.88371214 -64.5859375 233.6015625 C-63.87735596 233.08561523 -63.16877441 232.56966797 -62.4387207 232.03808594 C-61.0593333 231.04025144 -59.67026317 230.05561664 -58.27026367 229.08691406 C-52.72343812 225.09192437 -48.69824373 220.51862651 -47.05078125 213.75390625 C-47.10736902 201.36118358 -55.94165851 193.97321568 -63.6640625 185.1640625 C-72.80814958 174.70658211 -72.80814958 174.70658211 -72.65234375 171.80859375 C-71.36133106 168.68445481 -69.4163745 166.08911006 -67.4375 163.375 C-59.2283886 151.77464183 -54.94297035 141.08976794 -57.21484375 126.67578125 C-58.87188867 119.0180766 -61.73272385 111.5585829 -67.4375 105.97265625 C-68.75 104.625 -68.75 104.625 -68.75 102.625 C-69.59691406 102.22087891 -69.59691406 102.22087891 -70.4609375 101.80859375 C-72.86753423 100.56422718 -75.09358601 99.14775358 -77.375 97.6875 C-87.15646221 91.83864321 -96.76183638 90.10572008 -108.015625 92.24609375 C-119.18195477 95.22289967 -127.93272529 101.06491425 -134.24609375 110.81640625 C-136.95542044 115.87616182 -138.90479229 121.19991927 -140.75 126.625 C-141.8225 126.46 -142.895 126.295 -144 126.125 C-156.32217836 124.64459695 -165.74507013 125.94307981 -176.69506836 131.69995117 C-188.54227362 137.92475394 -188.54227362 137.92475394 -195.75 136.625 C-205.19906917 132.7594717 -212.01523941 119.20479555 -216.75 110.625 C-219.22814187 104.70201077 -219.32952289 99.65084993 -216.92578125 93.66796875 C-214.22110408 88.96847984 -210.47351049 86.41781483 -205.625 84.1875 C-198.60419222 83.16835048 -191.61429577 84.2075575 -184.625 85.1875 C-174.10208586 86.37557095 -166.17955207 85.6621606 -157.0625 79.9375 C-154.2587218 77.1337218 -151.98612876 74.07294987 -149.69140625 70.84375 C-146.56470417 67.2703762 -143.9981863 64.83434445 -139.08618164 64.37695312 C-134.78958051 64.37419204 -130.51354928 64.57667822 -126.22265625 64.78125 C-117.52423632 65.03307398 -110.44824324 63.71895185 -103.4453125 58.2890625 C-93.28728343 48.24880768 -86.38741657 36.44282527 -86.21875 21.9375 C-87.83392189 11.86642819 -92.64967846 4.19194716 -98.5625 -3.9375 C-99.59213867 -5.38286133 -99.59213867 -5.38286133 -100.64257812 -6.85742188 C-103.35526482 -10.66339573 -106.08658194 -14.4557837 -108.82177734 -18.24560547 C-109.46195801 -19.1429541 -110.10213867 -20.04030273 -110.76171875 -20.96484375 C-111.62543091 -22.16741821 -111.62543091 -22.16741821 -112.5065918 -23.39428711 C-113.75 -25.375 -113.75 -25.375 -113.75 -27.375 C-78.05463947 -36.89376281 -30.80729432 -15.78371853 0 0 Z " fill="#000000" transform="translate(358.75,98.375)"/>
<path d="M0 0 C3.90642998 0.48756946 5.14748731 1.57403176 7.80859375 4.51953125 C10.2773742 7.92774276 12.45097202 11.51073732 14.63427734 15.10595703 C18.26410733 20.90556752 22.29523769 26.45080956 26.21166992 32.05908203 C32.3226092 40.95666121 35.49649723 47.64295473 34.25 58.6875 C32.06249992 67.46666698 25.32327433 76.61421975 18.2109375 81.98046875 C14.37752772 84.19049523 11.6201186 84.88418591 7.23828125 84.49609375 C6.48482422 84.43687744 5.73136719 84.37766113 4.95507812 84.31665039 C4.16552734 84.25340576 3.37597656 84.19016113 2.5625 84.125 C-8.58069177 83.40697662 -16.68113774 84.57378217 -25.75 91.6875 C-27.73767999 93.9144735 -29.48655806 96.20635996 -31.22265625 98.6328125 C-33.87263865 102.19775046 -36.56603598 104.29284533 -40.75 105.6875 C-46.05157979 106.1336212 -51.331333 105.7655209 -56.60546875 105.16796875 C-57.9049646 105.02161987 -57.9049646 105.02161987 -59.23071289 104.87231445 C-60.9568657 104.67007201 -62.68150852 104.45435826 -64.40405273 104.22338867 C-73.53132324 103.14192443 -80.33142213 104.74272146 -87.80859375 110.11328125 C-93.18693141 114.47438804 -96.50668838 120.10738169 -97.625 126.9375 C-98.2965455 136.68239517 -93.4173233 144.57754239 -88.3125 152.5 C-87.45301758 153.87188477 -87.45301758 153.87188477 -86.57617188 155.27148438 C-80.82370558 164.373488 -76.18017913 170.68533246 -65.25 173.28125 C-57.23185163 173.96572608 -50.78744084 170.29148837 -43.86328125 166.73046875 C-34.57973314 162.01443951 -25.87300648 159.76285923 -15.5 162.6875 C-14.5925 163.0175 -13.685 163.3475 -12.75 163.6875 C-12.60304687 164.48671875 -12.45609375 165.2859375 -12.3046875 166.109375 C-9.34164333 180.61807404 -2.65315972 190.50688935 6.43359375 201.859375 C10.99323374 207.56977569 15.27745916 213.47461942 19.54296875 219.40649414 C23.90802533 225.49650218 23.90802533 225.49650218 29.25 230.6875 C32.02853348 230.51189192 33.0394716 229.91067094 34.95751953 227.87744141 C35.51036621 227.10577637 36.06321289 226.33411133 36.6328125 225.5390625 C37.24253906 224.69859375 37.85226562 223.858125 38.48046875 222.9921875 C39.10566406 222.10789062 39.73085938 221.22359375 40.375 220.3125 C41.00792969 219.4359375 41.64085937 218.559375 42.29296875 217.65625 C44.66359606 214.36455094 46.99975084 211.06287374 49.25 207.6875 C49.91 207.6875 50.57 207.6875 51.25 207.6875 C52.58984375 209.19921875 52.58984375 209.19921875 54.1875 211.375 C57.72922764 216.07746191 61.48488839 220.54880332 65.34155273 224.99291992 C73.82251877 234.87085861 73.82251877 234.87085861 73.8125 239.75 C72.83934963 246.56205262 66.75864273 250.0001121 61.5625 254 C60.31890926 254.9699224 59.07542031 255.93997533 57.83203125 256.91015625 C55.66767021 258.59125238 53.49807968 260.2647419 51.32421875 261.93359375 C39.02184628 271.51040267 35.0736839 281.42466209 30.59765625 296.046875 C27.46374717 306.16175023 24.60720685 313.83581693 17.25 321.6875 C11.30387932 329.50630697 7.90735092 337.41388236 5.875 347 C4.98875699 350.72222066 4.29398963 353.31843289 1.4375 355.9375 C-2.13547626 357.89913403 -3.76109957 358.53620222 -7.75 357.6875 C-12.49548911 354.15209927 -13.51233497 350.93585706 -14.43360901 345.36408997 C-14.5702446 344.41507309 -14.70688019 343.46605621 -14.84765625 342.48828125 C-15.00866318 341.49805466 -15.1696701 340.50782806 -15.33555603 339.4875946 C-15.84711778 336.32777118 -16.33176645 333.16464847 -16.8125 330 C-17.29977659 326.85384083 -17.79315347 323.70900683 -18.30015564 320.56596375 C-18.61406315 318.61444366 -18.91655691 316.6610389 -19.20533752 314.7056427 C-20.85497409 304.32910907 -24.39350638 296.38681922 -31.0625 288.3125 C-32.30744708 286.7550702 -33.55087981 285.19642894 -34.79296875 283.63671875 C-35.76049072 282.43088135 -35.76049072 282.43088135 -36.74755859 281.20068359 C-40.18389662 276.88787408 -43.53848495 272.51525966 -46.875 268.125 C-47.50188721 267.31691895 -48.12877441 266.50883789 -48.7746582 265.67626953 C-57.01823631 254.80662705 -59.8368385 242.81503126 -63.24462891 229.82568359 C-66.23492351 218.4899417 -69.13728896 208.15523463 -79.22265625 201.0703125 C-82.40393563 199.32970524 -85.73048991 198.12188555 -89.125 196.875 C-96.49191 194.13308835 -101.19407664 190.26918498 -106.75 184.6875 C-107.80428779 183.74998353 -108.8659043 182.82066258 -109.93359375 181.8984375 C-115.60965666 176.95312027 -120.41491641 172.1640404 -124.5 165.8125 C-128.21153221 160.14003029 -131.69210497 156.70551269 -137.75 153.6875 C-138.36101562 153.35234375 -138.97203125 153.0171875 -139.6015625 152.671875 C-148.61830563 148.45127183 -158.84640495 149.98662568 -167.875 153.25 C-169.09445313 153.72566406 -170.31390625 154.20132813 -171.5703125 154.69140625 C-174.63460799 155.6513514 -175.84601055 155.89388368 -178.75 154.6875 C-174.32595809 139.96679416 -169.3982186 125.57227513 -162.75 111.6875 C-157.58690022 116.5128269 -153.6088146 122.08916781 -149.47851562 127.80078125 C-148.6519043 128.91259766 -148.6519043 128.91259766 -147.80859375 130.046875 C-147.31673584 130.72202148 -146.82487793 131.39716797 -146.31811523 132.09277344 C-144.47019384 133.97205454 -143.36804401 134.48193894 -140.75 134.6875 C-136.115077 130.93798588 -132.84192921 125.93210742 -129.375 121.125 C-125.53120445 115.83132911 -121.6732124 110.55807022 -117.67578125 105.37890625 C-116.67587158 104.07578491 -116.67587158 104.07578491 -115.65576172 102.74633789 C-114.38318928 101.09193058 -113.10276508 99.44352039 -111.81298828 97.80249023 C-103.71634417 87.22061697 -98.44946073 75.19757961 -99.75 61.6875 C-100.95425459 55.53414749 -102.7320975 49.61837864 -104.75 43.6875 C-96.93125239 37.70109353 -89.008101 32.01385016 -80.5625 26.9375 C-79.84457275 26.4955127 -79.12664551 26.05352539 -78.38696289 25.59814453 C-73.37117137 22.65076365 -73.37117137 22.65076365 -70.75610352 22.80541992 C-67.98934121 24.02196029 -66.866255 25.67741895 -65.0703125 28.09765625 C-64.38839844 29.00580078 -63.70648438 29.91394531 -63.00390625 30.84960938 C-62.30136719 31.80673828 -61.59882813 32.76386719 -60.875 33.75 C-60.18019531 34.68005859 -59.48539062 35.61011719 -58.76953125 36.56835938 C-53.13430367 44.11913984 -53.13430367 44.11913984 -51.08105469 47.15576172 C-50.57735352 47.88682129 -50.07365234 48.61788086 -49.5546875 49.37109375 C-49.12913574 50.0148999 -48.70358398 50.65870605 -48.26513672 51.32202148 C-46.77270869 52.9124168 -46.77270869 52.9124168 -44.26147461 53.10839844 C-41.71772497 52.90957448 -41.71772497 52.90957448 -40.15112305 51.27661133 C-39.46336792 50.28310669 -39.46336792 50.28310669 -38.76171875 49.26953125 C-38.22812744 48.51994141 -37.69453613 47.77035156 -37.14477539 46.99804688 C-36.58137451 46.17369141 -36.01797363 45.34933594 -35.4375 44.5 C-34.20266855 42.75498863 -32.96560227 41.01155704 -31.7265625 39.26953125 C-31.08106445 38.35510254 -30.43556641 37.44067383 -29.77050781 36.49853516 C-25.77625755 30.94152724 -21.54787656 25.55902019 -17.34448242 20.15942383 C-13.3230169 14.93590382 -9.778685 9.61849819 -6.47924805 3.90698242 C-4.46335537 1.31959286 -3.16940796 0.69685788 0 0 Z " fill="#000000" transform="translate(229.75,70.3125)"/>
<path d="M0 0 C3.01860867 0.59925829 5.00797074 1.50004117 7.46875 3.3359375 C8.11690674 3.81820801 8.76506348 4.30047852 9.43286133 4.79736328 C10.11501709 5.3179834 10.79717285 5.83860352 11.5 6.375 C12.20471436 6.90722168 12.90942871 7.43944336 13.63549805 7.98779297 C19.26913753 12.3037078 24.50650812 16.93033187 29.64453125 21.8203125 C31.99601424 24.11144708 31.99601424 24.11144708 35 26 C34.5105601 29.13241535 33.76168404 31.52429512 32.4375 34.4375 C29.20402948 42.9213583 30.03244622 52.92633755 33.5078125 61.1953125 C36.72369891 67.23983198 40.86000318 72.57286929 45 78 C46.36907902 79.81856682 47.73752688 81.63760891 49.10546875 83.45703125 C51.91550989 87.17903658 54.72818809 90.8989195 57.55859375 94.60546875 C58.14954834 95.38043701 58.74050293 96.15540527 59.34936523 96.95385742 C60.81047428 98.76506211 62.31775721 100.39574832 64 102 C69.29500913 100.63842622 71.23745533 97.39656045 74 93 C76 94 76 94 76.71435547 95.99584961 C76.92979004 96.87249268 77.14522461 97.74913574 77.3671875 98.65234375 C77.61130371 99.64459961 77.85541992 100.63685547 78.10693359 101.65917969 C78.48712646 103.28194824 78.48712646 103.28194824 78.875 104.9375 C79.13748535 106.04383789 79.3999707 107.15017578 79.67041016 108.29003906 C86.25058462 136.90474268 86.25058462 136.90474268 86 150 C84.81664062 150.09796875 83.63328125 150.1959375 82.4140625 150.296875 C66.82662588 151.43683124 66.82662588 151.43683124 54.125 159.75 C51.53268723 163.00856138 49.69748354 166.35509871 47.94921875 170.1171875 C44.94341088 176.07932491 40.79242791 179.15644448 35 182 C29.43883161 183.78365928 23.40046698 183.30826666 17.625 183.375 C16.40554688 183.41238281 15.18609375 183.44976562 13.9296875 183.48828125 C3.8838794 183.5869846 3.8838794 183.5869846 0.2265625 180.671875 C-2.98573077 176.81712308 -3.6683322 173.28748208 -4.37890625 168.38671875 C-5.90573609 158.44169196 -9.32899434 152.86511345 -17.23046875 146.640625 C-20.28056037 143.81272548 -20.92467914 141.76021516 -21.3359375 137.609375 C-21.48048438 123.32814358 -21.48048438 123.32814358 -17 118 C-13.49473116 114.46659899 -9.79458624 111.21772445 -6 108 C-4.64408308 106.81449887 -3.28971154 105.62722584 -1.9375 104.4375 C-1.31101562 103.89222656 -0.68453125 103.34695312 -0.0390625 102.78515625 C3.2488725 99.90663844 6.50569141 96.99520567 9.73828125 94.0546875 C11.43209106 92.51592419 13.14815913 91.00160075 14.875 89.5 C19.35174114 84.23324571 21.76340897 78.27916694 21.375 71.32421875 C20.14230252 63.68406251 17.23497961 58.20039522 11.13671875 53.3984375 C6.49238031 50.35881563 1.76783563 49.12842061 -3.625 48.0625 C-8.59227052 47.0262246 -12.24525514 45.0072698 -15.62353516 41.14282227 C-18.15378562 37.20383534 -17.86845733 33.49902896 -17 29 C-14.95152462 24.27147209 -12.33078397 19.93607322 -9.625 15.5625 C-8.91728131 14.38204988 -8.21153564 13.20041453 -7.5078125 12.01757812 C-5.07611712 7.96085554 -2.6237005 3.93555076 0 0 Z " fill="#000000" transform="translate(377,111)"/>
<path d="M0 0 C8.45397164 5.78687205 14.15111618 13.5477505 16.63671875 23.56640625 C18.58024436 36.58593803 14.6490137 46.58728076 7 57 C3.54843013 61.57341177 0.01562988 66.08236487 -3.53125 70.58203125 C-7.78662731 75.9817411 -11.90644762 81.47695313 -16 87 C-19.30811012 85.605562 -20.95172222 84.11720771 -23.03125 81.2109375 C-23.867771 80.05730713 -23.867771 80.05730713 -24.72119141 78.88037109 C-25.30819824 78.05359863 -25.89520508 77.22682617 -26.5 76.375 C-27.74641541 74.64512649 -28.99382889 72.91597172 -30.2421875 71.1875 C-30.86834961 70.31738281 -31.49451172 69.44726562 -32.13964844 68.55078125 C-33.87443993 66.172159 -35.64580128 63.8298825 -37.4453125 61.5 C-37.98220703 60.80213379 -38.51910156 60.10426758 -39.07226562 59.38525391 C-40.07216388 58.09073154 -41.07822048 56.80093079 -42.09179688 55.51708984 C-49.3500141 46.05018381 -51.78853442 36.82801632 -51 25 C-49.32074224 15.06676345 -43.90451025 7.88701799 -36.25390625 1.54296875 C-25.29908336 -5.9564334 -11.57709542 -6.25468259 0 0 Z M-38 15 C-42.29605241 20.94742516 -43.85306514 26.69876601 -43 34 C-41.06953754 42.21750914 -36.8228803 47.18668056 -30 52 C-24.12760192 55.13194564 -16.11248879 55.05285366 -9.7265625 53.41796875 C-2.98059915 50.49827315 2.20511636 44.51498047 5.5 38.0625 C7.00949559 28.81683949 6.09323114 21.63984671 0.875 13.8125 C-4.28795114 8.17178323 -10.94168088 5.25056689 -18.5234375 4.875 C-26.72246519 5.28883105 -32.56054919 9.00675895 -38 15 Z " fill="#000000" transform="translate(277,202)"/>
<path d="M0 0 C8.49806598 6.02719974 13.69987303 13.52458736 16.75 23.4375 C18.44817763 40.84382066 11.24381572 51.14471522 0.95507812 64.42871094 C-1.04909395 67.06456762 -2.97711827 69.74303938 -4.890625 72.4453125 C-5.51662598 73.3230835 -6.14262695 74.20085449 -6.78759766 75.10522461 C-7.99382366 76.80044817 -9.19171908 78.5016365 -10.38037109 80.20922852 C-10.92773926 80.96905029 -11.47510742 81.72887207 -12.0390625 82.51171875 C-12.51553223 83.18678467 -12.99200195 83.86185059 -13.48291016 84.55737305 C-15 86 -15 86 -19 86 C-20.73242187 84.34204102 -20.73242187 84.34204102 -22.46875 82.00390625 C-23.11682617 81.1432959 -23.76490234 80.28268555 -24.43261719 79.39599609 C-25.11485352 78.46094238 -25.79708984 77.52588867 -26.5 76.5625 C-27.20543945 75.61197754 -27.91087891 74.66145508 -28.63769531 73.68212891 C-30.07939539 71.73214968 -31.51461224 69.77736074 -32.94335938 67.81787109 C-34.80462128 65.26769482 -36.68788151 62.73574034 -38.578125 60.20703125 C-46.85972528 48.99536208 -52.53418682 39.44854424 -51 25 C-49.58649395 15.88768915 -44.78048559 7.74222388 -37.5 2.04296875 C-25.70860538 -5.34462758 -12.49721879 -6.56535918 0 0 Z M-37 13 C-41.37108772 19.73720358 -44.02750426 25.80890972 -43 34 C-40.90316687 40.97346789 -37.14468003 47.26386357 -31 51.3203125 C-24.41343863 54.68416349 -17.74199967 55.15677213 -10.58203125 53.41015625 C-3.24561743 50.67004988 1.92180164 44.98321353 5.5 38.125 C6.97522525 28.90484216 6.42932688 21.83472486 1 14 C-4.19769688 7.88657985 -10.62949471 5.55624613 -18.4375 4.5625 C-25.20833079 5.39400554 -32.24900211 7.97751651 -37 13 Z " fill="#000000" transform="translate(105,106)"/>
<path d="M0 0 C9.33780323 5.45665868 14.87599042 13.22028637 18.015625 23.4453125 C19.98830755 33.3452564 18.65485673 42.95422773 13.22998047 51.45458984 C10.10595686 56.07753029 6.77345898 60.53729009 3.39794922 64.97851562 C1.28028622 67.76971676 -0.81146539 70.57931325 -2.90234375 73.390625 C-4.35037436 75.3238072 -5.79957339 77.25611482 -7.25 79.1875 C-7.94512695 80.11868652 -8.64025391 81.04987305 -9.35644531 82.00927734 C-10.00581055 82.86473145 -10.65517578 83.72018555 -11.32421875 84.6015625 C-11.90131592 85.36678223 -12.47841309 86.13200195 -13.07299805 86.92041016 C-13.56453369 87.4622998 -14.05606934 88.00418945 -14.5625 88.5625 C-15.2225 88.5625 -15.8825 88.5625 -16.5625 88.5625 C-17.85253906 87.11987305 -17.85253906 87.11987305 -19.328125 85.07421875 C-20.15884521 83.93424438 -20.15884521 83.93424438 -21.00634766 82.77124023 C-21.60237793 81.93923096 -22.1984082 81.10722168 -22.8125 80.25 C-24.07492913 78.50478016 -25.33796789 76.76000117 -26.6015625 75.015625 C-27.25286133 74.11392578 -27.90416016 73.21222656 -28.57519531 72.28320312 C-30.50700088 69.63848061 -32.47511224 67.02620313 -34.4609375 64.421875 C-35.08581055 63.59598877 -35.71068359 62.77010254 -36.35449219 61.91918945 C-37.54225889 60.3515842 -38.73777191 58.78980628 -39.94238281 57.23510742 C-47.00484301 47.83754598 -50.40229841 37.95024656 -49.34375 26.1171875 C-47.77949868 17.48372347 -42.74085262 8.43014926 -35.6796875 3.15625 C-25.2051849 -3.69399505 -11.53811232 -5.30606184 0 0 Z M-34.4453125 13.53515625 C-39.26428854 19.76257698 -42.17423921 25.82380356 -41.31640625 33.87109375 C-39.73901855 42.14888939 -35.43587482 47.81693164 -28.5625 52.5625 C-22.57694548 55.7651915 -16.72105508 56.55895888 -10.1171875 54.9765625 C-3.13652378 52.64967459 1.29110067 48.58900687 5.4375 42.5625 C8.6374057 36.12072263 8.60531622 28.53850685 6.59765625 21.703125 C3.472065 14.75736666 -1.12949664 10.65244775 -7.95703125 7.43359375 C-17.30774159 4.30734426 -27.59461189 6.35755499 -34.4453125 13.53515625 Z " fill="#000000" transform="translate(200.5625,23.4375)"/>
<path d="M0 0 C5.73837226 5.3005045 9.55100631 10.5806913 10.34765625 18.421875 C10.97150481 34.35400755 2.94448816 43.14240093 -6.47314453 55.06640625 C-8.43614885 57.55233433 -10.37415659 60.05731997 -12.3125 62.5625 C-13.20755055 63.7089449 -14.10298928 64.85508814 -15 66 C-18.40588064 64.58053652 -20.05918366 62.97583337 -22.20703125 60 C-22.7906543 59.19973389 -23.37427734 58.39946777 -23.97558594 57.57495117 C-24.58176758 56.72521729 -25.18794922 55.8754834 -25.8125 55 C-26.43543945 54.13802002 -27.05837891 53.27604004 -27.70019531 52.38793945 C-28.92646652 50.68793998 -30.14907801 48.9852935 -31.36767578 47.27978516 C-32.69949014 45.41970701 -34.04415372 43.57127659 -35.40234375 41.73046875 C-36.01207031 40.89128906 -36.62179687 40.05210937 -37.25 39.1875 C-37.75015625 38.50042969 -38.2503125 37.81335938 -38.765625 37.10546875 C-42.66580078 30.45295374 -42.71993189 23.49629081 -42 16 C-40.17242693 9.09468131 -36.06239207 2.67305398 -30.046875 -1.28515625 C-20.5103053 -6.36283363 -8.9566249 -6.46660885 0 0 Z M-34 9.25 C-37.19425488 14.49039679 -38.65877952 20.12713541 -37.375 26.1875 C-35.19715311 33.09086373 -31.15044278 37.41818762 -25 41 C-19.31978516 42.89340495 -13.25898331 42.92131907 -7.75 40.4375 C-2.3864897 37.35402444 1.02694063 33.28457417 3.4375 27.625 C4.62505955 19.97183845 3.55460503 14.34710305 -1.06640625 8.01953125 C-5.28666748 3.61170285 -10.88549168 0.85772434 -17 0.375 C-23.47862334 0.86122528 -29.97117352 4.15157357 -34 9.25 Z " fill="#000000" transform="translate(458,135)"/>
<path d="M0 0 C4.14804463 2.31162875 6.42648757 4.87232156 7.8125 9.4375 C8.57615416 14.45693518 8.40364596 18.20973531 6.1875 22.8125 C2.95766285 26.38232001 0.36245471 29.02444949 -4.55078125 29.8203125 C-10.61075915 30.09618403 -14.39625698 29.17466955 -19.1875 25.4375 C-22.06190146 22.06839443 -23.42176467 18.80383664 -23.625 14.375 C-23.00245992 8.77213929 -21.41663202 5.30708012 -17.1875 1.625 C-11.6905684 -2.38317929 -6.2141723 -2.71290358 0 0 Z " fill="#000000" transform="translate(94.1875,121.5625)"/>
<path d="M0 0 C3.77166749 3.23285785 5.81269906 6.4823314 6.57421875 11.34375 C6.82142313 17.00387795 6.10802912 20.54178361 2.1875 24.875 C-1.51239473 28.30417072 -4.3917349 29.17469749 -9.3125 29.375 C-14.23853649 29.16779901 -17.14547182 28.36314876 -20.8125 24.875 C-23.58772301 21.43859533 -25.05470667 18.25330049 -25.25 13.8125 C-24.63134876 8.24463886 -23.04736586 4.75953304 -18.875 1.0625 C-12.94625771 -3.17231592 -6.63046606 -2.65218642 0 0 Z " fill="#000000" transform="translate(267.8125,218.125)"/>
<path d="M0 0 C4.37962299 2.18981149 7.39404749 4.84977934 10 9 C11.68811313 14.85212553 10.76893506 19.68125423 8 25 C5.32454829 28.15374475 2.21314993 30.61698637 -2 31 C-3.093125 31.103125 -4.18625 31.20625 -5.3125 31.3125 C-11.21476896 30.81230772 -14.58023604 28.68129942 -18.375 24.1875 C-20.82097514 19.3896257 -21.24575534 15.75100678 -20.5 10.4375 C-16.58433405 1.46409887 -9.20298395 -1.01940745 0 0 Z " fill="#000000" transform="translate(189,39)"/>
<path d="M0 0 C2.94194583 2.02258775 4.49783456 3.47467248 5.625 6.8984375 C6.5136725 11.73059421 5.79962129 14.84883739 3 19 C1.09227345 21.20122294 -0.20224339 21.8922355 -3.08203125 22.28125 C-7.8618744 22.47149251 -11.17181943 22.13214774 -15 19 C-17.21666876 15.67499687 -17.77137913 13.96276172 -18 10 C-16.66136101 6.05101499 -15.40886922 2.55665192 -12 0 C-7.80286671 -1.39904443 -4.27028044 -1.07131597 0 0 Z " fill="#000000" transform="translate(447,146)"/>
</svg>
